HIERARCHY
ROOT Hips
{
	OFFSET -14.64140 90.27770 -84.91600
	CHANNELS 6 Xposition Yposition Zposition Zrotation Xrotation Yrotation
	JOINT Spine
	{
		OFFSET 0.00000 13.20850 -1.60436
		CHANNELS 3 Zrotation Xrotation Yrotation
		JOINT Spine1
		{
			OFFSET 0.00000 8.61716 0.00000
			CHANNELS 3 Zrotation Xrotation Yrotation
			JOINT Spine2
			{
				OFFSET 0.00000 8.61717 0.00000
				CHANNELS 3 Zrotation Xrotation Yrotation
				JOINT Spine3
				{
					OFFSET 0.00000 8.61717 0.00000
					CHANNELS 3 Zrotation Xrotation Yrotation
					JOINT Neck
					{
						OFFSET 0.00000 11.07920 1.10792
						CHANNELS 3 Zrotation Xrotation Yrotation
						JOINT Neck1
						{
							OFFSET 0.00000 7.08032 0.00000
							CHANNELS 3 Zrotation Xrotation Yrotation
							JOINT Head
							{
								OFFSET 0.00000 7.08031 0.00000
								CHANNELS 3 Zrotation Xrotation Yrotation
								End site
								{
									OFFSET 0.00000 0.00000 0.00000
								}
							}
						}
					}
					JOINT RightShoulder
					{
						OFFSET -0.01000 7.91373 5.19711
						CHANNELS 3 Zrotation Xrotation Yrotation
						JOINT RightArm
						{
							OFFSET -18.41580 0.00000 0.00000
							CHANNELS 3 Zrotation Xrotation Yrotation
							JOINT RightForeArm
							{
								OFFSET -29.11090 0.00000 0.00000
								CHANNELS 3 Zrotation Xrotation Yrotation
								JOINT RightHand
								{
									OFFSET -24.65040 0.00000 0.00000
									CHANNELS 3 Zrotation Xrotation Yrotation
									JOINT RightHandThumb1
									{
										OFFSET -5.35114 -0.85590 3.97906
										CHANNELS 3 Zrotation Xrotation Yrotation
										JOINT RightHandThumb2
										{
											OFFSET -4.52789 0.00000 0.00000
											CHANNELS 3 Zrotation Xrotation Yrotation
											JOINT RightHandThumb3
											{
												OFFSET -2.46976 0.00000 0.00000
												CHANNELS 3 Zrotation Xrotation Yrotation
												End site
												{
													OFFSET 0.00000 0.00000 0.00000
												}
											}
										}
									}
									JOINT RightHandIndex1
									{
										OFFSET -14.26970 0.00000 2.88139
										CHANNELS 3 Zrotation Xrotation Yrotation
										JOINT RightHandIndex2
										{
											OFFSET -5.48836 0.00000 0.00000
											CHANNELS 3 Zrotation Xrotation Yrotation
											JOINT RightHandIndex3
											{
												OFFSET -3.01859 0.00000 0.00000
												CHANNELS 3 Zrotation Xrotation Yrotation
												End site
												{
													OFFSET 0.00000 0.00000 0.00000
												}
											}
										}
									}
									JOINT RightHandMiddle1
									{
										OFFSET -14.26970 0.00000 -0.09147
										CHANNELS 3 Zrotation Xrotation Yrotation
										JOINT RightHandMiddle2
										{
											OFFSET -6.17441 0.00000 0.00000
											CHANNELS 3 Zrotation Xrotation Yrotation
											JOINT RightHandMiddle3
											{
												OFFSET -3.56743 0.00000 0.00000
												CHANNELS 3 Zrotation Xrotation Yrotation
												End site
												{
													OFFSET 0.00000 0.00000 0.00000
												}
											}
										}
									}
									JOINT RightHandRing1
									{
										OFFSET -12.69180 0.00000 -3.06433
										CHANNELS 3 Zrotation Xrotation Yrotation
										JOINT RightHandRing2
										{
											OFFSET -5.62556 0.00000 0.00000
											CHANNELS 3 Zrotation Xrotation Yrotation
											JOINT RightHandRing3
											{
												OFFSET -3.56744 0.00000 0.00000
												CHANNELS 3 Zrotation Xrotation Yrotation
												End site
												{
													OFFSET 0.00000 0.00000 0.00000
												}
											}
										}
									}
									JOINT RightHandPinky1
									{
										OFFSET -11.11390 0.00000 -6.03719
										CHANNELS 3 Zrotation Xrotation Yrotation
										JOINT RightHandPinky2
										{
											OFFSET -4.52789 0.00000 0.00000
											CHANNELS 3 Zrotation Xrotation Yrotation
											JOINT RightHandPinky3
											{
												OFFSET -2.46976 0.00000 0.00000
												CHANNELS 3 Zrotation Xrotation Yrotation
												End site
												{
													OFFSET 0.00000 0.00000 0.00000
												}
											}
										}
									}
								}
							}
						}
					}
					JOINT LeftShoulder
					{
						OFFSET 0.01000 7.91373 5.19711
						CHANNELS 3 Zrotation Xrotation Yrotation
						JOINT LeftArm
						{
							OFFSET 18.41580 0.00000 0.00000
							CHANNELS 3 Zrotation Xrotation Yrotation
							JOINT LeftForeArm
							{
								OFFSET 29.11090 0.00000 0.00000
								CHANNELS 3 Zrotation Xrotation Yrotation
								JOINT LeftHand
								{
									OFFSET 24.65040 0.00000 0.00000
									CHANNELS 3 Zrotation Xrotation Yrotation
									JOINT LeftHandThumb1
									{
										OFFSET 5.35114 -0.85590 3.97906
										CHANNELS 3 Zrotation Xrotation Yrotation
										JOINT LeftHandThumb2
										{
											OFFSET 4.52789 0.00000 0.00000
											CHANNELS 3 Zrotation Xrotation Yrotation
											JOINT LeftHandThumb3
											{
												OFFSET 2.46977 0.00000 0.00000
												CHANNELS 3 Zrotation Xrotation Yrotation
												End site
												{
													OFFSET 0.00000 0.00000 0.00000
												}
											}
										}
									}
									JOINT LeftHandIndex1
									{
										OFFSET 14.26970 0.00000 2.88139
										CHANNELS 3 Zrotation Xrotation Yrotation
										JOINT LeftHandIndex2
										{
											OFFSET 5.48836 0.00000 0.00000
											CHANNELS 3 Zrotation Xrotation Yrotation
											JOINT LeftHandIndex3
											{
												OFFSET 3.01859 0.00000 0.00000
												CHANNELS 3 Zrotation Xrotation Yrotation
												End site
												{
													OFFSET 0.00000 0.00000 0.00000
												}
											}
										}
									}
									JOINT LeftHandMiddle1
									{
										OFFSET 14.26970 0.00000 -0.09147
										CHANNELS 3 Zrotation Xrotation Yrotation
										JOINT LeftHandMiddle2
										{
											OFFSET 6.17440 0.00000 0.00000
											CHANNELS 3 Zrotation Xrotation Yrotation
											JOINT LeftHandMiddle3
											{
												OFFSET 3.56744 0.00000 0.00000
												CHANNELS 3 Zrotation Xrotation Yrotation
												End site
												{
													OFFSET 0.00000 0.00000 0.00000
												}
											}
										}
									}
									JOINT LeftHandRing1
									{
										OFFSET 12.69180 0.00000 -3.06433
										CHANNELS 3 Zrotation Xrotation Yrotation
										JOINT LeftHandRing2
										{
											OFFSET 5.62556 0.00000 0.00000
											CHANNELS 3 Zrotation Xrotation Yrotation
											JOINT LeftHandRing3
											{
												OFFSET 3.56744 0.00000 0.00000
												CHANNELS 3 Zrotation Xrotation Yrotation
												End site
												{
													OFFSET 0.00000 0.00000 0.00000
												}
											}
										}
									}
									JOINT LeftHandPinky1
									{
										OFFSET 11.11390 0.00000 -6.03719
										CHANNELS 3 Zrotation Xrotation Yrotation
										JOINT LeftHandPinky2
										{
											OFFSET 4.52789 0.00000 0.00000
											CHANNELS 3 Zrotation Xrotation Yrotation
											JOINT LeftHandPinky3
											{
												OFFSET 2.46976 0.00000 0.00000
												CHANNELS 3 Zrotation Xrotation Yrotation
												End site
												{
													OFFSET 0.00000 0.00000 0.00000
												}
											}
										}
									}
								}
							}
						}
					}
					JOINT pCube4
					{
						OFFSET 0.00000 10.91090 1.10792
						CHANNELS 3 Zrotation Xrotation Yrotation
						End site
						{
							OFFSET 0.00000 0.00000 0.00000
						}
					}
				}
			}
		}
	}
	JOINT RightUpLeg
	{
		OFFSET -9.98441 0.00000 0.00000
		CHANNELS 3 Zrotation Xrotation Yrotation
		JOINT RightLeg
		{
			OFFSET 0.00000 -42.11790 0.00000
			CHANNELS 3 Zrotation Xrotation Yrotation
			JOINT RightFoot
			{
				OFFSET 0.00000 -45.00020 -0.00001
				CHANNELS 3 Zrotation Xrotation Yrotation
				JOINT RightForeFoot
				{
					OFFSET 0.00000 -3.74820 0.00000
					CHANNELS 3 Zrotation Xrotation Yrotation
					JOINT RightToeBase
					{
						OFFSET 0.00000 0.06325 14.43120
						CHANNELS 3 Zrotation Xrotation Yrotation
						End site
						{
							OFFSET 0.00000 0.00000 0.00000
						}
					}
				}
			}
		}
	}
	JOINT LeftUpLeg
	{
		OFFSET 9.98441 0.00000 0.00000
		CHANNELS 3 Zrotation Xrotation Yrotation
		JOINT LeftLeg
		{
			OFFSET 0.00000 -42.11800 0.00000
			CHANNELS 3 Zrotation Xrotation Yrotation
			JOINT LeftFoot
			{
				OFFSET 0.00000 -45.00070 0.00000
				CHANNELS 3 Zrotation Xrotation Yrotation
				JOINT LeftForeFoot
				{
					OFFSET 0.00000 -3.74824 0.00000
					CHANNELS 3 Zrotation Xrotation Yrotation
					JOINT LeftToeBase
					{
						OFFSET 0.00000 0.06325 14.43110
						CHANNELS 3 Zrotation Xrotation Yrotation
						End site
						{
							OFFSET 0.00000 0.00000 0.00000
						}
					}
				}
			}
		}
	}
}
MOTION
Frames: 4
Frame Time: 0.050000
0.0255803129243039 0.00780741035395348 0.021487708173760153 -0.014050276838796514 0.04598714799017799 0.014418382437396564 -2.0418645230795547 2.8124054743649385 -0.8632202700430459 -1.0099468739956836 3.8986805136755454 0.3957458036761415 -1.0517993059002781 -1.443031289780973 -1.357346501109891 -0.46722082720215197 0.44206842496589455 -0.8033289204571401 -1.122738822977239 11.675155719741966 2.476760513287117 -0.020854053817419546 -2.0777330857905913 4.834324600148954 -0.5318982790553057 -18.70402413091913 0.42495468470148856 -3.385548246349639 1.4530608434345884 -14.383968824860808 73.33826473591638 21.651648886744724 0.39138068013094995 5.163204147141384 5.916820333342133 53.24002735449559 20.351213123361 -0.1132928425940157 -4.39847523356225 4.483227582959747 -0.11069591442238415 -1.56896348340538 -0.010432003956442707 -0.01772162246059004 -56.226434292345104 0.008689775855330064 -0.023115305418163586 -56.206836260894406 -38.793278861697225 -0.02258350778965636 0.03607085918782113 0.042007646004570375 0.0019073314727198088 0.021209022958757186 0.04152084782716957 -0.041647390832401036 0.037250458979277215 -36.73156040235632 -0.03271219210756371 0.030570013735824398 -0.014057662246854 -0.036699581540054725 0.01611061821396907 0.009955593546345957 0.02424206639165064 0.022288937393692636 -19.75332602574863 0.017096564782225713 0.0444529373587746 -0.021730694543168446 -0.008293608962740534 -0.03202834808657844 -0.030627813048697657 0.010874057440661231 -0.03703637779248312 24.056088618009344 -0.014470377349724077 0.029429908720468835 28.883687879981803 -0.016849629794752748 0.01992773716364957 28.84328774957259 0.03241516831325992 0.027675679236200366 6.625301946559013 1.5533210180822832 12.68882589193358 -73.10600080323783 26.01897432491614 -10.851625363508132 -40.52648212957295 2.578716436650215 -78.69368826220513 -12.003302334115505 -1.7541912321337993 1.7115825814654146 -0.49562100653496266 0.06965309022427556 -8.118003439363328 -0.00216462761899383 0.005916307059309855 44.57628579476319 -0.023143604910659785 0.026225805891716674 44.6101440112959 12.417514149600482 0.025935153787776232 0.011896592042962175 0.028587036527925613 -0.036070210511299126 0.021595364123267166 -0.014691739407641383 -0.006830392047183712 0.03117726693294321 11.13486190931559 -0.039651545472994744 0.0015329470350405766 0.015969737370970124 -0.00663414961099886 0.002007275849710154 0.02629289736723577 -0.049710634594943286 -0.028950712709111065 4.727872856050376 0.010720031648282715 -0.03127614987091819 0.03944795346013588 -0.0017664170098746052 -0.0452310151600195 0.012775802683939148 0.04029852444732679 0.04731942192353913 -5.568899919042472 -0.02213598539206174 -0.00709816970592068 -6.739424445793821 0.021444916214686045 0.03764835871115731 -6.69086171906138 -0.04634212912514513 -0.00912632647919033 -0.01821456636620222 0.03626175054591343 -0.006929832910849022 8.040518892523735 3.5019813259976758 -19.26343979110315 -0.017375325903751255 10.409142731924147 -0.028625085186022362 -5.619613822955044 -15.619305248927965 3.1925521315388283 0.017068055227246193 -0.048891269908149584 0.0017915040484291227 -0.017158484134891284 4.73840138057058 -0.04151790925211878 12.484395742800649 -8.286120714698713 6.904443023873323 0.03406078723102745 46.393818193001565 0.03625861516141023 -4.300539839962664 -14.747330366147716 -3.853761029392407 -0.032158085601336886 0.028899220538175587 -0.017235477404970712 0.003973592880734202 -10.731749424320164 0.00963284434215795 
0.03622234374140567 0.0036742722536655726 0.010864734133955984 0.03551489311410555 0.014287634129243016 -0.03051446955679247 -2.1610360617739826 2.6177049956255436 -0.8836240179156836 -0.9357162211982438 3.8025633343574126 0.3784061400498446 -1.0456519879138428 -1.4475527705978486 -1.3886607244169125 -0.4899459972683763 0.4229897241301102 -0.8341331729790908 -1.1976617372291172 11.670875681305121 2.744933083828186 -0.011468127928152876 -1.908947312866268 5.435575119004252 -0.5321712672933226 -18.460131250705164 0.43537963417769765 -3.162686121531009 1.4115659005116241 -14.348888315537044 73.45059054238313 22.399441994849 -0.25752423231405297 6.4185927993563086 6.5707075937878665 52.48180535308224 21.195940561873897 -0.051814950928414975 -4.50110401575929 4.506009148857119 -0.16826541322884356 -1.6026953733334546 0.008904253603775487 -0.02010564118372372 -56.20072009002735 0.028773072617558407 -0.03552468654687393 -56.269732985150824 -38.72441154772538 0.033638095415958115 -0.02220960743674595 -0.025334412886414123 -0.0007551008751013196 -0.01677893311126194 -0.02191643822776925 -0.001100448546343013 0.010273380031567058 -36.716977600224126 0.018169141550395413 0.04633983716177473 -0.00483091742902912 -0.013938731469270433 -0.0200110449712906 -0.012949506029270417 -0.0407959790943106 0.008549054482316458 -19.735548836001577 0.0073788480288353156 0.028088894702872128 -0.0036234830092974207 -0.028646931236430393 -0.03992598247761293 0.010258059859334225 0.030504740745785196 -0.011942307899160768 24.06368988048766 -0.019613028142046414 -0.02404326969830038 28.87224567731752 -0.04543888375454277 0.04614264684198475 28.885474726094447 -0.04478652285827249 -0.03222267391904114 6.68989144455819 1.5320319421181903 12.72585583116506 -73.22339570567709 25.729940488052396 -10.992620575031978 -45.03678783080968 2.8988766985548953 -82.31844377805199 -12.356463931459402 -2.0275463746461595 1.6871811397038396 -0.4678558054710701 0.09957346565217363 -8.159866607015218 0.04366105070935289 0.010710663756117855 44.527931791315005 0.019601396210293335 0.03840371828318319 44.539672367634765 12.428286784479424 0.022805302839148993 -0.01548665028263917 -0.03445999064982276 0.0409297636008218 0.026284710918296948 -0.017049122059099146 0.014203611533924694 0.01512316084445807 11.119999304512124 -0.049023548568298624 0.028387064141240908 -0.023826442345487163 -0.023688345787016084 -0.042833146832140644 0.033669352202945875 0.04981110076177046 0.02127467422961605 4.775163941228928 0.005543559655906359 0.004413981459590106 -0.026254759928469675 -0.016246829641226555 -0.025409000134913942 0.03508766159703499 0.029235827636605857 -0.03824935796930285 -5.558485951689039 0.005130942552287623 0.04273070413077999 -6.766591778461786 -0.020789298312126767 0.03875513508078261 -6.686095606842425 -0.0402025799208606 -0.007216706952435932 -0.003755993788402253 -0.02387425250801101 -0.006585685380427998 8.052881617612629 3.4688504164948597 -19.214106250535437 -0.014908995881541256 10.400604537906364 -5.5210186624132795e-06 -5.634095384398587 -15.637677600078204 3.2052880279642446 -0.003240759202069388 -0.010635106697514808 -0.035134882108179055 0.02558119567044034 4.660712690938795 -0.005884832666656765 12.452523478539295 -8.190082337773037 6.870339105758301 0.011663921203467197 46.42003415626603 -0.04487029858663694 -4.279247873513324 -14.768805974859724 -3.8456578831863975 0.013024357466459918 -0.004269480242427457 -0.025653498935829442 -0.011104194628019605 -10.782560033711421 0.017634834391501313 
0.027927080286076524 -0.028654295008461048 0.04119492669782229 -0.017918653548940358 0.0068451660291169395 0.0019608573969649946 -2.3312507773633024 2.548078861836989 -0.8035677560213116 -0.960840405009886 3.8280528784578967 0.3245218058896427 -0.9774739942284787 -1.5178244736092115 -1.53480048849733 -0.48527133318549454 0.40841391403659677 -0.8814513472729989 -1.2108069393709728 11.631853501335673 2.948300250346014 -0.01247029733931478 -1.803136742524379 5.775847389499809 -0.5675319897454913 -18.10871287597 0.4692994677439091 -2.8988681390212574 1.2964899976919533 -14.316461253647972 73.3123632553847 22.126020350594562 -0.7105938460379088 7.364716283448617 7.03572508838915 51.83934870049375 22.110496536342993 -0.06713741609884524 -4.641576084740159 4.573142267623344 -0.12702115132118738 -1.6314945030816335 0.026440303830982392 -0.04863057114064048 -56.18766813918183 0.04313213643716178 0.03312613772702166 -56.21959703543051 -38.75900835957259 0.0040000861765735534 0.040902573699185305 0.013792465478147446 -0.036969657731205044 -0.015218276081137821 0.015003296525426875 0.005966378718967326 0.025522379120526392 -36.67081953443704 0.042582728761818046 0.043246432789412696 -0.01728745291685358 -0.020012602337827638 0.006564886987568192 -0.008476795221526333 -0.042829557493461 0.003865308403363107 -19.807285850731642 -0.02548375541965179 0.021974678075359303 -0.005288554056330708 -0.019708465326406917 0.002992322305662013 0.018617434570146776 -0.03525676552166418 -0.015207851323849976 24.099409533498402 -0.034777891071190066 0.04437916672073499 28.83201798151399 0.010948928259188745 -0.018068189172208725 28.889938552519016 -0.041520228487753975 0.028268532522699934 6.595489462061266 1.4969871123120166 12.651939402752511 -73.01008137906402 25.31699574057343 -11.040088677203206 -48.6282157136826 2.783934544722102 -85.20704358458377 -12.481395285285762 -2.115013808217856 1.5609242666168002 -0.4756106582258698 0.03709942484678677 -8.08424357655679 -0.023770734189822153 -0.012202858781611845 44.52279460096616 0.035328840396423235 0.026484590533018788 44.59737772718934 12.458003157148921 -0.023958837463515233 0.016235362997844265 0.0038332546708810034 -0.03367282461303622 -0.026762158555975128 0.04411217421195412 0.04926543759157606 -0.018413769313334896 11.152435345381498 0.029179217721940768 -0.01410248079211072 0.016713751072331993 -0.01637461714016157 -0.04191138750122926 -0.04709295971017935 0.001324947638850764 0.030325466113762453 4.735529853216184 -0.015594239985369263 0.029131803787515297 -0.013359034764928345 0.027029646871193094 -0.04308895468911171 -0.034764487777471084 -0.04147848681776696 -0.005792459140202657 -5.612295543516689 -0.025659283216154054 -0.00221922072507485 -6.741903867779371 -0.0316516836972431 -0.04592295080017872 -6.6811779611089825 0.030531890469646314 -0.043898493439077604 -0.039778133120571824 0.019946505316498782 -0.013001508925444666 8.092252061721064 3.5080856916348315 -19.25428307184109 0.008749388058431135 10.394611230634197 -0.021077848841782477 -5.578442917114295 -15.67498870826128 3.1798303835117774 0.04353481707257113 -0.01731115536795231 -0.013782861871253745 -0.007244534381283301 4.70148313494413 -0.046661928521497795 12.443815064534228 -8.269809038455444 6.8633438592305005 0.02699818637723702 46.40319486251421 0.039149512659835316 -4.282722354906352 -14.729051265503708 -3.874992797445016 -0.014837806931646474 -0.03189428921783977 0.04985934643144224 -0.0427488090877651 -10.74587023620292 -0.002716456486850909 
-0.03558776303620122 0.006710959270089277 0.04783244476009471 -0.03570107945390238 0.02737282642973879 0.04288623415062509 -2.5384233115091703 2.3872097236421177 -0.8315088632922282 -0.9380755602454626 3.7972255061425852 0.3390925522935891 -1.0490338218881063 -1.5648499766692294 -1.6360053310974818 -0.47841337265915684 0.41759489214583234 -0.844315117135246 -1.226859021494344 11.659638660777444 3.109917880900224 0.02652848061459653 -1.602000535921647 6.094786224240684 -0.6579259717012138 -17.818477806922388 0.47415918555928677 -2.7319512326393607 1.2922761254197879 -14.223777800130687 73.07024440902254 22.018478727775022 -0.9849045950170767 7.698399069846928 7.179817576531326 51.41522701587181 22.828521569803797 -0.04583302255717897 -4.585827955030146 4.563908055321691 -0.12740014159891913 -1.610948819689846 0.002956804196379081 0.031075150200518077 -56.20123658250653 0.031236199090099916 0.03429528530048229 -56.25653906672111 -38.75009870598958 0.02845197865702507 0.03108005166074177 0.03934457626919409 -0.032190299006381394 0.032615180880219974 -0.02311063227646923 -0.019545561449969072 0.03806336890548937 -36.65901564994289 0.009949794568749296 0.04707256257115276 -0.02518894478473995 -0.038656654442571624 -0.03236551117029331 -0.024987728565776808 0.007788616457026229 0.019515516802499317 -19.723596991837674 0.004933211647712373 -0.026534197317783673 -0.03718761954756251 -0.022844385360066895 0.01410699701242318 0.03531223437402231 -0.02608750364248505 -0.039624127641088885 24.035248802818618 0.013284708773944675 0.0062199010357848845 28.909986487022717 -0.023393098505495803 0.03234599270979231 28.846409118664614 0.03096481356324342 -0.03202273883547895 6.470174210591903 1.541619814635442 12.599961987400029 -72.67354526048815 25.11819022379181 -11.046581076207106 -50.31829759356386 2.475578908022562 -86.50524784119429 -12.458834808123203 -2.0176760437431875 1.4637610679837505 -0.47157083746957623 0.05851443273280915 -8.140808104983567 -0.043402850177115176 -0.011699199441368296 44.57757577383912 0.04672060504286274 -0.040945374548603614 44.56373819527669 12.493820960522763 -0.028113997667618795 0.0040887272950663345 0.029620144692197554 0.004164978251265694 0.040045084582035144 -0.0276093851032268 0.046392737486897755 0.016411422638042936 11.108688512164523 0.0030924006187285995 0.0034607045265711016 0.0033278228703265693 -0.010070379441341523 -0.02472996330677025 0.019328196780452594 0.019290028007377277 0.014649482829482292 4.821940616832706 0.04660786344144747 0.023850547964898994 -0.009085462306142931 0.0007590747431079066 0.04210749204469915 -0.0432185246020526 -0.015680531377534834 0.0006919627009626053 -5.633933676060573 -0.022904625737572487 0.008818551283653157 -6.7575175521120965 -0.03560805481766826 -0.01903293450021704 -6.752118336650798 0.04519398258743619 -0.002765325468918385 0.033108307628726935 -0.04258360751389449 0.0029146328452278963 8.090761234935401 3.5044429320095123 -19.239543135203572 0.014488620905488617 10.372115849057478 0.01982367687889165 -5.6120480006305264 -15.62098439329989 3.228569284620197 0.021294388420673094 0.048379210887315525 -0.0422581282063108 0.04135349434050608 4.739431473176168 -0.017970597425558288 12.485345648535642 -8.20260083407419 6.918123682816909 0.015671877739776 46.389994186021504 0.04750369670836364 -4.358957846872802 -14.722935938147021 -3.854231013821474 0.024287974517823278 -0.03983714285298453 -0.046222229997964624 -0.022159199625492548 -10.786746146786905 0.025409329718753988 
